<?xml version="1.0" encoding="UTF-8" standalone="no"?>
<!-- Created with Inkscape (http://www.inkscape.org/) -->

<svg
   version="1.1"
   id="svg1"
   width="2496.5259"
   height="1782.7302"
   viewBox="0 0 2496.5259 1782.7303"
   xmlns="http://www.w3.org/2000/svg"
   xmlns:svg="http://www.w3.org/2000/svg">
  <defs
     id="defs1">
    <clipPath
       clipPathUnits="userSpaceOnUse"
       id="clipPath4">
      <rect
         style="fill:#dfdfdf;fill-opacity:0.374631;stroke-width:1.01975"
         id="rect4"
         width="955.52002"
         height="690.00244"
         x="412.04733"
         y="1495.2504"
         transform="matrix(0.99795626,-0.0639008,0.05911126,0.9982514,0,0)" />
    </clipPath>
    <clipPath
       clipPathUnits="userSpaceOnUse"
       id="clipPath1">
      <rect
         style="fill:#dfdfdf;fill-opacity:0.374631;stroke-width:0.974468"
         id="rect2"
         width="2496.5259"
         height="1782.7303"
         x="-837.87109"
         y="644.71283"
         ry="44.568256" />
    </clipPath>
  </defs>
  <g
     id="g1"
     transform="translate(837.87108,-644.71285)"
     clip-path="url(#clipPath1)">
    <path
       style="fill:#000000"
       d="M -2.3916459,1705.6591 V -1.00745 H 957.60835 1917.6084 V 1705.6591 3412.3258 H 957.60835 -2.3916459 Z M 600.96655,2192.053 c 3.1326,-3.7228 3.5127,-5.1321 2.9537,-10.9504 -0.531,-5.5262 -1.402,-7.3125 -5.0511,-10.3589 -3.2867,-2.7438 -5.2817,-3.4747 -7.8351,-2.8704 -10.5618,2.4993 -13.9912,16.4702 -6.1261,24.9568 4.7627,5.1391 11.3487,4.8204 16.0586,-0.7771 z m -13.7735,-2.4458 c -5.909,-5.5051 -2.4459,-17.2814 5.0819,-17.2814 4.8473,0 8,4.2391 8,10.7567 0,8.397 -7.2115,11.9938 -13.0819,6.5247 z m 37.6669,4.523 c 5.6467,-0.7739 6.1962,-1.1492 5.3691,-3.6666 -0.5067,-1.5425 -1.3037,-5.7982 -1.771,-9.4573 -0.6416,-5.0235 -1.4558,-6.7684 -3.3247,-7.125 -3.7121,-0.7083 -6.1314,2.2684 -3.1917,3.9271 2.7178,1.5335 3.198,9.1194 0.7333,11.584 -2.0935,2.0936 -6.3409,2.0532 -7.0089,-0.067 -0.289,-0.9167 -0.9069,-4.5167 -1.3732,-8 -0.7487,-5.5925 -1.2283,-6.3334 -4.0996,-6.3334 -3.7221,0 -3.9695,0.9388 -1.2092,4.5882 1.0767,1.4235 1.9576,4.313 1.9576,6.421 0,8.4669 2.1765,9.738 13.9183,8.1286 z m 29.086,-2.6798 c 2.0522,-1.2683 -0.5715,-3.1246 -4.4163,-3.1246 -3.4207,0 -3.9213,-0.4843 -3.9213,-3.7934 0,-4.5903 3.2984,-7.8282 8.5859,-8.4284 3.7858,-0.4297 3.8367,-0.5269 1.4947,-2.8549 -1.5373,-1.5282 -3.2154,-2.0452 -4.5859,-1.4131 -1.1888,0.5483 -4.6742,0.8799 -7.7453,0.7368 -6.0728,-0.2829 -8.553,1.6708 -5.3002,4.175 1.1273,0.8679 2.4611,3.8649 2.964,6.66 0.8015,4.455 0.5651,5.1733 -1.9161,5.8222 -2.893,0.7565 -3.5363,1.9455 -1.9246,3.5572 0.9299,0.9299 14.8999,-0.184 16.7651,-1.3368 z m 52.3896,-5.064 c 5.5809,-5.5808 3.579,-19.6621 -3.32,-23.3544 -3.1627,-1.6926 -12.0608,-1.7622 -14.6648,-0.1146 -1.5691,0.9928 -1.6306,1.8617 -0.3333,4.709 1.9564,4.2937 2.0826,15.9558 0.2106,19.4537 -1.2942,2.4184 -0.8752,2.579 6.7273,2.579 6.8302,0 8.6231,-0.5156 11.3802,-3.2727 z m -13.41,-8.866 c -1.0725,-9.2407 0.8072,-12.8478 5.8595,-11.2443 4.8746,1.5471 6.8233,4.6214 6.8233,10.7647 0,6.3659 -2.208,8.6183 -8.4481,8.6183 -3.0354,0 -3.3632,-0.63 -4.2347,-8.1387 z m 40.3494,9.965 c 1.65,-0.4422 3,-1.5334 3,-2.4248 0,-1.1417 -2.0849,-1.448 -7.0524,-1.036 -5.37,0.4453 -7.4764,0.074 -8.8299,-1.557 -1.5747,-1.8974 -1.2454,-2.1418 2.8857,-2.1418 12.9243,0 16.296,-3.4885 9.7239,-10.0606 -6.7125,-6.7125 -18.0606,-1.7204 -18.0606,7.945 0,8.2514 7.6714,12.1325 18.3333,9.2752 z m -13.5691,-12.3352 c -1.2466,-2.0169 4.3348,-4.5057 8.0267,-3.5791 4.1622,1.0447 4.1517,3.4213 -0.015,3.4213 -1.7734,0 -4.1127,0.341 -5.1985,0.7576 -1.0858,0.4167 -2.3517,0.1468 -2.8131,-0.5998 z m 196.358,11.1047 c 0.2506,-0.2177 -0.1456,-1.47 -0.8804,-2.783 -1.3843,-2.4737 3.0002,-16.4207 7.157,-22.7659 2.7049,-4.129 2.54,-4.3802 -2.8767,-4.3802 -4.5405,0 -4.7612,0.1991 -3.9231,3.5383 0.8728,3.4777 -1.3364,11.1283 -3.2134,11.1283 -1.4736,0 -4.0523,-6.4034 -4.0523,-10.0627 0,-2.7647 -0.6358,-3.2706 -4.1111,-3.2706 -2.2611,0 -3.9111,0.45 -3.6666,1 0.2444,0.55 2.7042,4.9753 5.4663,9.8339 5.5405,9.7464 5.4519,12.1631 -0.5604,15.2722 -5.5569,2.8736 -3.4564,4.8671 3.9901,3.787 3.4183,-0.4958 6.4201,-1.0796 6.6706,-1.2973 z m -167.7889,-0.9958 c 0,-0.9533 -0.6409,-2.3743 -1.4243,-3.1576 -2.1661,-2.1661 -1.0038,-11.7757 1.4243,-11.7757 1.3852,0 2.1093,1.6394 2.3554,5.3333 0.5499,8.2517 1.5264,11.3333 3.5913,11.3333 2.745,0 3.8627,-2.4865 2.0821,-4.632 -2.2206,-2.6756 -1.206,-12.0346 1.3046,-12.0346 1.4545,0 2.1818,2 2.6666,7.3333 0.5771,6.348 1.0698,7.3906 3.6667,7.7594 3.3129,0.4705 3.6059,-0.1359 1.7453,-3.6125 -0.6901,-1.2894 -1.5744,-4.9966 -1.9651,-8.238 -0.7508,-6.2284 -3.9188,-9.8663 -7.4086,-8.5074 -1.1211,0.4365 -5.3068,1.0683 -9.3017,1.4039 -3.9949,0.3357 -7.5458,0.8927 -7.8909,1.2378 -0.3451,0.3451 0.159,2.0971 1.1203,3.8933 1.1348,2.1204 1.4562,5.393 0.9164,9.3313 -0.8262,6.0279 -0.8067,6.0655 3.1431,6.0655 2.3723,0 3.9745,-0.6987 3.9745,-1.7333 z m 38.8101,-3.5383 c 3.1867,-3.1866 3.7691,-4.6499 3.0517,-7.6667 -2.68,-11.2698 -14.9691,-13.8564 -19.9618,-4.2016 -2.7512,5.3202 -2.3571,8.3192 1.6152,12.2915 4.7897,4.7897 10.2326,4.6391 15.2949,-0.4232 z m -11.8467,-2.1373 c -3.4683,-2.4293 -3.826,-6.2046 -0.8681,-9.1625 3.0072,-3.0072 8.075,-2.588 10.4958,0.8681 2.6711,3.8136 2.6189,4.4933 -0.5911,7.7033 -3.2092,3.2093 -5.1202,3.3343 -9.0366,0.5911 z m 40.7112,1.6392 c 3.1771,-3.1772 0.8488,-4.9536 -3.5901,-2.7392 -5.0469,2.5177 -10.5235,1.1339 -12.4765,-3.1524 -1.3303,-2.9197 -1.075,-3.6947 2.1244,-6.4467 3.8272,-3.292 6.9819,-3.1155 9.9393,0.556 2.1955,2.7257 4.925,0.199 3.7578,-3.4785 -0.9991,-3.1477 -8.6512,-4.7862 -13.5877,-2.9093 -7.399,2.8131 -8.3761,16.2295 -1.4381,19.7471 3.7571,1.9049 12.714,0.9799 15.2709,-1.577 z m 24.3254,-1.4791 c 0,-1.1865 -1.6492,-2.0745 -4.3333,-2.3333 -3.2041,-0.309 -4.4367,-1.1408 -4.7298,-3.1921 -0.5791,-4.0522 3.8893,-8.8924 8.2094,-8.8924 2.6607,0 3.5335,-0.588 3.2161,-2.1667 -0.3066,-1.5248 -1.6096,-2.0572 -4.399,-1.797 -2.1798,0.2033 -6.5134,0.3293 -9.63,0.2799 -5.8237,-0.092 -7.3422,1.7071 -3.8286,4.5368 1.0109,0.8142 2.1639,3.6726 2.562,6.3522 0.5991,4.0311 0.2819,4.9874 -1.8381,5.5418 -1.4091,0.3685 -2.562,1.3262 -2.562,2.1282 0,0.9057 3.2832,1.4581 8.6667,1.4581 6.6449,0 8.6666,-0.4468 8.6666,-1.9155 z m 23.111,0.3981 c 4.1556,-0.8346 7.5366,-1.8846 7.5133,-2.3333 -0.023,-0.4488 -0.9233,-1.9806 -2,-3.4041 -1.0767,-1.4235 -1.9576,-4.3763 -1.9576,-6.5617 0,-4.4892 -3.2888,-8.8502 -6.6744,-8.8502 -3.5593,0 -10.6589,2.7957 -10.6589,4.1973 0,0.6983 2.7869,1.0896 6.1932,0.8695 4.0624,-0.2624 6.3944,0.1733 6.7778,1.2666 0.3867,1.1027 -0.827,1.6666 -3.5872,1.6666 -4.4577,0 -10.7172,4.9823 -10.7172,8.5305 0,1.801 4.7625,6.1362 6.741,6.1362 0.4479,0 4.2144,-0.6828 8.37,-1.5174 z m -10.8054,-5.3993 c 0.7244,-2.1733 7.2745,-4.1984 10.0718,-3.1138 2.1076,0.8172 2.0839,1.0388 -0.2989,2.7924 -3.1748,2.3365 -10.5252,2.5783 -9.7729,0.3214 z m 42.5467,1.6982 c 3.6302,-2.9431 2.6796,-5.0285 -1.3171,-2.8895 -5.9113,3.1636 -14.8685,0.5387 -14.8685,-4.3572 0,-5.9882 8.3282,-9.6828 12.4762,-5.5348 3.8453,3.8454 6.162,1.6185 4.0478,-3.8909 -0.5798,-1.5109 -2.5938,-2.1091 -7.1009,-2.1091 -5.0052,0 -6.9389,0.689 -9.4573,3.3698 -4.2826,4.5585 -4.3235,12.0363 -0.085,15.4687 4.0509,3.2802 12.2234,3.2516 16.3045,-0.057 z m 69.1477,-3.9995 c 0,-0.5034 -0.6921,-1.6074 -1.538,-2.4533 -2.2764,-2.2764 -1.645,-9.9869 0.9747,-11.9024 3.8566,-2.8201 7.23,0.1135 7.23,6.2873 0,2.9075 -0.6,5.2864 -1.3333,5.2864 -0.7334,0 -1.3334,0.9 -1.3334,2 0,1.3968 1.4074,2 4.6667,2 4.57,0 6.5038,-2.7072 3.3333,-4.6667 -0.7333,-0.4532 -1.3333,-2.628 -1.3333,-4.833 0,-4.2081 -2.0508,-9.1221 -4.5329,-10.8619 -0.8069,-0.5655 -3.3776,-0.6957 -5.7127,-0.2894 -4.0001,0.6962 -4.2699,0.4865 -4.6666,-3.6274 -0.2887,-2.9933 -1.1995,-4.514 -2.8961,-4.8357 -3.7009,-0.7018 -5.8841,2.0391 -3.2731,4.1091 2.5337,2.0087 4.1904,17.6871 2.2518,21.3095 -0.7116,1.3295 -0.9924,2.9049 -0.6241,3.5008 0.7812,1.2639 8.787,0.3317 8.787,-1.0233 z m 32.6667,-0.1175 c 2.2,-0.021 4.87625,-0.5928 5.94705,-1.2702 1.6796,-1.0624 1.6338,-1.5775 -0.3333,-3.7512 -1.2744,-1.4082 -2.2803,-4.6655 -2.2803,-7.384 0,-6.6142 -4.69785,-9.8942 -11.65645,-8.1387 -7.5544,1.9059 -7.2999,4.7971 0.378,4.2943 7.6444,-0.5007 9.6485,2.1851 2.4965,3.3457 -5.6091,0.9103 -9.8848,4.2426 -9.8848,7.704 0,3.1683 5.3218,6.8144 8.6666,5.9377 1.4667,-0.3845 4.4667,-0.7164 6.6667,-0.7376 z m -11.0278,-5.5812 c 0.7007,-2.1019 7.2344,-4.2118 9.8886,-3.1933 1.7034,0.6537 1.7912,1.1877 0.4594,2.7925 -1.9893,2.397 -11.1314,2.7512 -10.348,0.4008 z m 41.05845,1.5528 c 2.1284,-2.1284 2.4031,-3.2467 1.3028,-5.3028 -1.7702,-3.3076 -5.5351,-5.3333 -9.9124,-5.3333 -2.2589,0 -3.421,-0.7308 -3.421,-2.1513 0,-2.2248 4.3601,-2.1578 9.784,0.1504 2.0378,0.8672 2.3748,0.5059 2,-2.1447 -0.3371,-2.3848 -1.4148,-3.2979 -4.2784,-3.6252 -9.1592,-1.0467 -15.2754,4.2018 -10.7385,9.2151 1.2721,1.4056 3.7594,2.5557 5.5272,2.5557 4.1152,0 8.6807,2.4226 7.6644,4.0669 -1.0305,1.6674 -8.1343,1.6231 -11.2987,-0.07 -2.8563,-1.5286 -4.6914,0.2613 -3.4866,3.4008 1.2057,3.1422 13.5094,2.5867 16.8572,-0.7611 z m 51.3028,-1.6784 c 3.7429,-1.9556 5.908,-5.1068 5.9576,-8.6713 0.099,-7.1106 -8.8991,-14.0171 -14.4157,-11.0647 -3.871,2.0717 -4.0044,1.9657 -4.4614,-3.5439 -0.4322,-5.2106 -2.7059,-6.7703 -6.4074,-4.3954 -1.7382,1.1152 -1.6985,1.4991 0.3099,2.9983 2.8499,2.1272 4.9507,20.1122 2.5244,21.6117 -0.8291,0.5124 -1.5074,1.747 -1.5074,2.7435 0,2.2206 13.8903,2.469 18,0.3218 z m -9.3289,-4.1229 c -2.7479,-2.0093 -2.251,-8.6611 0.7892,-10.5633 3.4574,-2.1633 9.0545,-0.01 10.0256,3.8617 1.4425,5.7476 -5.8984,10.2966 -10.8148,6.7016 z m 39.7326,2.2226 c 2.9529,-1.752 -0.7115,-3.4613 -7.6859,-3.5852 -4.9609,-0.088 -8.0241,-0.7481 -8.3797,-1.8055 -0.4013,-1.1935 1.4585,-1.6725 6.5508,-1.6871 3.9111,-0.011 8.0111,-0.5962 9.1111,-1.2999 1.7746,-1.1353 1.7692,-1.6963 -0.049,-4.9795 -5.7877,-10.4545 -19.9515,-7.4019 -19.9515,4.2998 0,4.7056 2.2111,8.5567 5.7538,10.0214 2.7003,1.1164 12.1965,0.4915 14.6499,-0.964 z m -16.0982,-12.6406 c 0.6837,-2.051 10.1933,-2.4216 10.6945,-0.4168 0.1833,0.7333 -2.2792,1.5209 -5.4723,1.7501 -4.3296,0.3109 -5.6573,-0.028 -5.2222,-1.3333 z m 40.6945,11.5992 c 6.1367,-1.764 3.1919,-4.0424 -5.2074,-4.029 -5.3827,0.01 -8.4036,-0.5606 -8.7778,-1.6537 -0.398,-1.163 1.1756,-1.6721 5.2074,-1.6848 11.0525,-0.035 14.2714,-2.6235 10.0687,-8.0974 -4.2695,-5.5608 -10.8814,-6.568 -16.1111,-2.4543 -2.6659,2.097 -3.5132,3.9548 -3.5132,7.7033 0,10.0578 6.426,13.6385 18.3334,10.2159 z m -13.6254,-12.6158 c -1.2221,-1.9775 4.1988,-4.2247 7.9313,-3.2879 4.5662,1.146 4.2265,2.7146 -0.8059,3.721 -5.5107,1.1022 -6.2025,1.0601 -7.1254,-0.4331 z m 31.292,10.0443 c 0,-1.0389 -0.5556,-2.0889 -1.2347,-2.3334 -2.78,-1.0006 -2.9373,-7.2701 -0.2642,-10.5287 2.196,-2.6771 3.0907,-2.9822 5.0821,-1.7331 1.9076,1.1965 2.3662,3.0413 2.1764,8.7554 l -0.2403,7.2395 3.907,-0.5734 c 3.837,-0.5632 5.0338,-2.0837 2.7506,-3.4948 -0.6361,-0.3931 -1.4693,-3.4904 -1.8517,-6.8828 -1.0846,-9.6222 -3.0992,-10.8163 -15.3252,-9.0831 -5.8161,0.8245 -6.6849,1.6383 -4.2978,4.0255 1.723,1.723 2.0748,8.0353 0.715,12.8311 -0.9965,3.5146 -0.8401,3.6666 3.7716,3.6666 3.262,0 4.8112,-0.6082 4.8112,-1.8888 z m 53.1169,-2.7835 c 0.3545,-0.3546 -0.4245,-1.826 -1.7312,-3.2698 -3.4766,-3.8416 -1.724,-6.9899 3.6052,-6.4763 3.3305,0.3209 4.4418,1.1176 4.7685,3.4184 0.2344,1.65 -0.2156,3 -1,3 -0.7843,0 -1.426,0.9 -1.426,2 0,1.3969 1.4074,2 4.6666,2 4.4663,0 6.5246,-2.6943 3.4907,-4.5694 -1.9004,-1.1745 -3.2598,-17.9656 -1.6149,-19.9475 1.8082,-2.1788 0.5527,-3.4831 -3.3526,-3.4831 -3.6325,0 -5.4018,2.3215 -3.3403,4.3829 2.7471,2.7471 1.7411,7.5018 -1.7738,8.3839 -1.7916,0.4497 -3.8916,0.4257 -4.6666,-0.053 -1.7877,-1.1049 -1.8428,-6.9548 -0.076,-8.0469 2.8268,-1.747 1.1379,-3.4834 -3,-3.0845 -3.1256,0.3014 -4.1637,0.9753 -3.7247,2.4178 1.3981,4.5944 1.5279,20.229 0.1814,21.8513 -0.7884,0.9501 -0.9929,2.1681 -0.4544,2.7066 0.9652,0.9652 8.1937,0.024 9.4479,-1.2302 z m 39.5387,-2.2116 c 0.8613,-0.7994 0.657,-1.6382 -0.5861,-2.4064 -1.0495,-0.6487 -2.1018,-2.8737 -2.3385,-4.9445 -1.238,-10.8331 -4.8425,-13.8119 -13.3254,-11.0123 -6.4575,2.1311 -4.8628,4.5605 2.6888,4.0961 7.4447,-0.4578 8.3416,1.7974 1.239,3.1155 -8.7758,1.6285 -11.9623,6.6223 -7.4249,11.6361 1.9067,2.1069 3.4513,2.3475 10.3333,1.6099 4.4504,-0.477 8.6866,-1.4195 9.4138,-2.0944 z m -17.4953,-2.7294 c -1.1714,-1.8954 0.9757,-3.4312 5.5064,-3.9386 2.8214,-0.316 4,0.1251 4,1.4973 0,2.26 -8.3009,4.3918 -9.5064,2.4413 z m 42.5379,0.5631 c 1.613,-1.4233 1.9309,-2.5207 1,-3.4516 -0.9309,-0.9309 -1.8735,-0.8561 -2.9648,0.2352 -0.88,0.88 -3.76,1.6 -6.4,1.6 -2.64,0 -5.52,-0.72 -6.4,-1.6 -4.9102,-4.9101 1.9827,-13.5665 8.4546,-10.6177 1.8033,0.8216 3.2787,2.1067 3.2787,2.8558 0,0.749 0.6,1.3619 1.3333,1.3619 0.7334,0 1.3334,-1.7332 1.3334,-3.8516 0,-3.3718 -0.6024,-3.9647 -4.8351,-4.7587 -8.7013,-1.6324 -15.1649,3.3859 -15.1649,11.7739 0,3.0119 4.1515,7.8081 8,9.2423 2.964,1.1046 9.665,-0.4071 12.3648,-2.7895 z m 12.9685,-2.9498 c 0,-5.1288 2.1677,-5.1094 5.062,0.045 1.6747,2.9825 2.9719,3.8629 4.938,3.3515 1.4667,-0.3814 3.4167,-0.7018 4.3333,-0.7118 2.7732,-0.03 1.8691,-2.6735 -1.3333,-3.8982 -1.65,-0.631 -4.2,-2.4807 -5.6667,-4.1104 l -2.6666,-2.9632 4.5615,-3.8108 c 3.6926,-3.0849 4.1519,-3.968 2.4112,-4.636 -3.53,-1.3546 -6.8886,-0.1087 -8.2889,3.0749 -0.7239,1.6457 -1.7039,2.9922 -2.1778,2.9922 -1.2126,0 -2.4663,-5.2072 -2.4878,-10.3334 -0.016,-3.7284 -0.4835,-4.3333 -3.3516,-4.3333 -3.3659,0 -4.766,3.3002 -1.8172,4.2832 2.0972,0.699 3.2946,20.3917 1.3144,21.6156 -2.6014,1.6077 -1.6247,3.4345 1.8362,3.4345 2.8148,0 3.3333,-0.6222 3.3333,-4 z m 37.9132,1.3664 c 6.0938,-2.3169 4.0229,-4.2944 -3.5799,-3.4183 -6.3435,0.7309 -12.0374,-0.6884 -10.1867,-2.5391 0.4048,-0.4048 4.4375,-1.1229 8.9614,-1.5958 4.5239,-0.4728 8.2253,-1.404 8.2253,-2.0693 0,-2.4902 -3.9803,-8.7843 -6.0597,-9.5823 -6.7534,-2.5915 -14.3626,1.078 -16.0326,7.7317 -0.8543,3.4039 2.2819,10.7615 5.0643,11.881 2.8989,1.1664 10.0294,0.9526 13.6079,-0.4079 z m -13.9132,-13.2765 c 0,-1.8491 5.0671,-3.1124 8.7629,-2.1848 5.3407,1.3404 3.658,3.4283 -2.7629,3.4283 -3.3,0 -6,-0.5596 -6,-1.2435 z m 43.5194,11.9101 c 3.2502,0 4.4597,-3.3402 1.5596,-4.3069 -0.9592,-0.3198 -1.7751,-4.1899 -2.0612,-9.7778 -0.7029,-13.7275 -1.206,-15.2486 -5.0432,-15.2486 -3.7472,0 -4.2553,1.5539 -1.3079,4 3.5147,2.917 2.4854,5.7638 -1.7758,4.9115 -8.1257,-1.6251 -16.0431,7.953 -12.3217,14.9063 3.1327,5.8537 5.6263,7.1846 11.86,6.3301 3.2687,-0.448 7.3592,-0.8146 9.0902,-0.8146 z m -16.0908,-4.7619 c -4.0436,-4.0436 -1.1171,-11.2381 4.5714,-11.2381 5.9715,0 9.1353,9.2517 4.0877,11.9531 -3.6174,1.936 -6.2234,1.7208 -8.6591,-0.715 z m 56.6724,3.6221 c 0.9776,-1.0955 -0.9617,-35.6834 -2.1045,-37.5325 -0.8859,-1.4334 -17.818,-0.4195 -19.5891,1.1731 -0.9287,0.8351 1.1019,35.6265 2.1812,37.373 0.6954,1.125 18.4257,0.204 19.5124,-1.0136 z m -433.47455,-32.2057 29.9599,-2.6512 11.1628,-7.6607 c 6.13955,-4.2134 11.45925,-8.1404 11.82165,-8.7267 1.0388,-1.6809 -2.3076,-4.9492 -5.0674,-4.9492 -4.70945,0 -2.5072,-2.8117 4.6979,-5.9981 3.9607,-1.7516 9.2954,-5.0235 11.855,-7.2709 6.7606,-5.9358 15.7287,-9.4509 26.3933,-10.345 10.8532,-0.9099 17.2381,-4.4808 14.3132,-8.0051 -1.8001,-2.169 -14.0045,-1.8006 -36.2748,1.095 -13.7028,1.7817 -15.2445,0.4645 -8.09,-6.9118 5.4654,-5.6347 12.1523,-9.2307 17.1648,-9.2307 6.1795,0 8.1989,-6.3814 3.1405,-9.9244 -4.5726,-3.2029 -12.7537,-2.4958 -23.5348,2.0339 -8.9837,3.7745 -16.37865,4.4796 -16.06485,1.5317 0.057,-0.536 4.29045,-4.4802 9.40735,-8.7649 9.9725,-8.3506 10.8322,-10.7922 4.9603,-14.0881 -3.2819,-1.842 -4.22,-1.65 -14.43965,2.9557 -7.2818,3.2817 -11.6042,4.5483 -12.9505,3.7949 -1.6785,-0.9394 -1.4143,-1.6077 1.5609,-3.948 5.0347,-3.9603 3.1612,-6.1091 -4.4205,-5.0699 -13.7747,1.888 -24.0826,10.8427 -39.3058,34.1457 -11.7196,17.94 -11.8431,18.0453 -10.9475,9.3334 1.2187,-11.8547 -5.9317,-21.991 -10.8084,-15.3218 -1.3693,1.8727 -1.3238,2.8497 0.2445,5.2431 1.6928,2.5835 1.6628,3.7178 -0.2461,9.3201 -1.643,4.8222 -2.013,9.4444 -1.5162,18.9431 0.5638,10.7775 1.1492,13.2559 4.1162,17.4259 l 3.459,4.8615 -4.7321,5.2378 c -4.8565,5.3755 -8.7339,12.8092 -7.6207,14.6104 0.9569,1.5482 9.1266,1.2224 41.762,-1.6657 z m 133.96625,-10.5348 c 1.287,-2.0824 5.0166,-21.6215 4.2696,-22.3684 -0.5598,-0.5598 -4.8386,1.8952 -10.0126,5.745 -0.9547,0.7104 -3.8172,16.4251 -3.119,17.1233 1.1873,1.1874 8.0588,0.7998 8.862,-0.4999 z m 30.9783,-1.1596 c 1.5937,-1.0136 9.9071,-42.8123 8.8703,-44.5987 -0.9007,-1.552 -9.6777,4.7099 -10.609,7.5688 -1.6281,4.9981 -6.7926,36.6651 -6.0936,37.3642 1.0349,1.0348 6.0137,0.8223 7.8323,-0.3343 z m 32.4486,-2.6267 c 0.011,-0.55 1.5057,-13 3.322,-27.6667 1.8163,-14.6666 3.3075,-27.069 3.3137,-27.5607 0.018,-1.4441 -8.1469,-2.816 -9.3695,-1.5742 -0.6145,0.6242 -2.3625,12.2349 -3.8844,25.8016 -1.522,13.5667 -3.0449,26.3166 -3.3843,28.3333 -0.5871,3.4886 -0.3596,3.6667 4.6829,3.6667 2.915,0 5.3088,-0.45 5.3196,-1 z m 30.4611,-2.6667 c 1.7983,-3.3806 4.8525,-46.8771 3.3902,-48.2811 -0.6623,-0.6359 -3.0042,-1.3578 -5.2042,-1.6042 l -4,-0.448 -0.8705,9.7482 c -0.4787,5.3615 -1.3009,17.2115 -1.827,26.3333 l -0.9566,16.5851 h 4.1134 c 2.5559,0 4.5835,-0.8835 5.3547,-2.3333 z m 26.7149,0.1085 3.1957,-0.8552 -0.917,-21.4479 c -0.5043,-11.7964 -1.3423,-21.8402 -1.8623,-22.3196 -0.5199,-0.4793 -2.9666,-1.298 -5.437,-1.8194 l -4.4916,-0.9478 0.9765,21.8074 c 0.9036,20.182 1.9517,26.5023 4.387,26.4558 0.5242,-0.01 2.3911,-0.403 4.1487,-0.8733 z m 32.0389,-15.4418 c -0.054,-7.5167 -0.5044,-16.3667 -1,-19.6667 -0.8723,-5.8076 -1.0647,-6.0134 -5.9993,-6.4197 l -5.0981,-0.4196 0.9366,19.0863 c 0.5151,10.4975 1.1947,19.5363 1.5101,20.0863 0.3155,0.55 2.6382,1 5.1616,1 h 4.5879 z m 27.584,-1.3333 c -1.3002,-19.5772 -1.0576,-18.8326 -6.5919,-20.2327 -2.6799,-0.6779 -5.1177,-0.9779 -5.4175,-0.6666 -0.3888,0.4038 2.3755,30.7349 3.12,34.2326 0.039,0.1833 2.2593,0.3333 4.9339,0.3333 h 4.8631 z m 32.2371,11.0182 c 1.337,-0.014 1.5185,-2.3298 0.8114,-10.3516 -1.2873,-14.6024 -2.1175,-16.3333 -7.834,-16.3333 -2.5848,0 -4.6947,0.45 -4.6887,1 0.043,3.9467 2.881,24.9526 3.5081,25.9673 0.4301,0.6957 2.0642,0.9209 3.6314,0.5004 1.5672,-0.4206 3.6246,-0.7728 4.5718,-0.7828 z m 25.9491,-11.0182 c -1.0895,-5.3167 -2.6613,-10.1075 -3.4929,-10.6463 -2.6888,-1.7422 -10.532,-1.1982 -9.8111,0.6805 0.359,0.9355 1.3898,5.2855 2.2907,9.6666 0.901,4.3812 1.9069,8.4158 2.2354,8.9658 0.3285,0.55 2.8836,1 5.6781,1 h 5.0809 z m 26.2703,6.6666 c -0.032,-0.9166 -2.9271,-10.2781 -6.4333,-20.8032 l -6.3749,-19.1365 -3.5667,4.2388 c -1.9617,2.3314 -3.569,5.2428 -3.5717,6.4699 0,1.2271 2.1796,8.681 4.8496,16.5644 l 4.8545,14.3333 h 5.1504 c 3.2626,0 5.129,-0.6109 5.0921,-1.6667 z m 29.3917,-1.276 c 0,-1.8351 -19.774,-62.0942 -21.2919,-64.8847 -0.735,-1.3511 -1.9836,-0.5298 -4.792,3.1521 l -3.798,4.9794 5.548,16.1813 c 15.149,44.1842 14.2055,42.1813 19.8697,42.1813 2.5976,0 4.4642,-0.6729 4.4642,-1.6094 z m -1.119,-73.0415 c -0.702,-8.9039 -1.6885,-16.6 -2.1921,-17.1024 -1.3533,-1.3498 -7.3556,6.1432 -7.3556,9.1824 0,1.4375 2.25,9.0541 5,16.9256 5.8264,16.6775 6.4718,15.3995 4.5477,-9.0056 z m -496.21445,3.2513 c 0,-2.6031 -0.8736,-6.4222 -1.9413,-8.4869 -2.2958,-4.4396 -10.003,-8.4525 -15.1042,-7.8644 -3.2501,0.3747 -3.6058,0.9274 -3.4712,5.3932 0.2077,6.895 2.486,9.276 7.9033,8.2597 3.774,-0.708 4.7547,-0.2696 7.3994,3.3075 3.9567,5.3518 5.214,5.2049 5.214,-0.6091 z m 376.65445,-8.0676 c 8.4401,-5.5735 15.3367,-10.5235 15.3258,-11 -0.011,-0.4764 -1.9936,-3.199 -4.4059,-6.0502 l -4.3861,-5.184 -9.5724,6.3652 c -7.9744,5.3027 -9.91,6.0852 -11.5941,4.6875 -3.3236,-2.7584 -2.2999,-4.4287 6.0361,-9.8485 4.3682,-2.8401 7.9422,-5.7301 7.9422,-6.4223 0,-1.8468 -6.7716,-10.4139 -8.2314,-10.4139 -0.6865,0 -4.8492,2.4454 -9.2503,5.4341 -6.4572,4.3851 -8.3737,5.1258 -9.9269,3.8368 -3.2627,-2.7078 -2.1948,-4.4151 6.107,-9.764 4.4046,-2.8378 8.3566,-5.7231 8.7821,-6.4116 0.7558,-1.2229 -5.7613,-11.7619 -7.2733,-11.7619 -1.4828,0 -32.1565,20.6812 -32.1816,21.6979 -0.014,0.5672 4.5945,6.8672 10.2413,14 5.6468,7.1328 13.4724,17.0187 17.3901,21.9687 3.9178,4.95 7.6922,9 8.3875,9 0.6953,0 8.1698,-4.5602 16.6099,-10.1338 z m -341.98775,-30.675 c 0,-2.6216 -17.9489,-21.3939 -22.9338,-23.9858 -2.1478,-1.1167 -7.6023,-1.872 -13.519,-1.872 -7.8123,0 -10.5869,-0.5453 -13.0662,-2.5677 -2.5024,-2.0412 -2.7377,-2.7045 -1.1477,-3.2353 4.0195,-1.3418 23.4268,-1.8237 26.6667,-0.6621 1.8333,0.6573 7.6242,5.8309 12.8686,11.4968 5.2444,5.6659 9.9492,9.8968 10.4551,9.4021 1.9074,-1.8655 -1.234,-7.1403 -8.6632,-14.5465 -4.2253,-4.2122 -8.5025,-8.8207 -9.5048,-10.2411 -2.8456,-4.0325 -9.7801,-6.9796 -16.4229,-6.9796 -4.5033,0 -6.0662,-0.5153 -6.0662,-2 0,-1.1 1.1646,-2 2.588,-2 3.4677,0 4.8246,-2.4641 1.9618,-3.5627 -5.0814,-1.9499 -44.8034,8.0068 -49.1054,12.3088 -2.5583,2.5583 -1.7613,4.534 6.3372,15.7098 6.2332,8.6017 6.8469,9.0744 10.7479,8.279 2.2754,-0.464 5.3372,-0.7589 6.8039,-0.6553 1.4666,0.1035 10.1909,0.278 19.3873,0.3877 l 16.7206,0.1994 7.946,6.8168 c 4.3703,3.7493 9.1461,7.4811 10.6127,8.2928 3.887,2.1513 7.3334,1.8764 7.3334,-0.5851 z m 393.02195,-66.1912 c 11.1436,-11.7611 55.149,-61.495 56.9232,-64.3333 1.3431,-2.1485 1.2027,-9.9208 -0.7225,-40 -1.3142,-20.5333 -2.4269,-37.4833 -2.4727,-37.6667 -0.4407,-1.765 -4.5003,2.2287 -17.619,17.3334 -39.6109,45.6073 -52.041,60.1167 -63.6827,74.3359 -16.0864,19.6479 -27.9699,31.2018 -36.5942,35.5795 -8.8073,4.4704 -21.8287,5.5976 -31.009,2.6841 -3.5814,-1.1366 -16.956,-5.4467 -29.7214,-9.5781 -57.3278,-18.5534 -188.891,-57.0495 -191.79005,-56.1188 -2.6672,0.8563 -34.7102,29.5905 -36.8373,33.0334 -0.7711,1.2482 -1.0123,2.6591 -0.5359,3.1355 0.9615,0.9615 31.9521,5.7804 59.70635,9.284 23.7354,2.9963 44.1612,5.9765 85.3333,12.4503 73.8816,11.617 181.674,26.4328 194.1947,26.6915 l 8.1947,0.1693 z m -407.83935,-29.9962 c 5.5829,-4.9479 23.9507,-21.3686 40.8174,-36.4905 16.8666,-15.1218 32.4519,-29.0089 34.634,-30.8602 l 3.9673,-3.366 -5.2058,-2.1752 c -2.8632,-1.1963 -5.6721,-2.0109 -6.242,-1.8102 -1.7468,0.6153 -89.1535,77.433 -89.1535,78.3529 0,0.9178 7.8625,5.1169 9.8492,5.2601 0.6505,0.047 5.7505,-3.963 11.3334,-8.9109 z m -73.7657,-15.3371 c 10.6439,-6.7833 21.2794,-13.5026 23.6345,-14.9317 2.355,-1.4291 9.0819,-5.6815 14.9486,-9.4498 5.8666,-3.7683 27.9166,-17.7923 49,-31.1645 25.4697,-16.1544 38.3272,-25.0639 38.3151,-26.5503 -0.03,-3.6977 -1.5506,-8.237 -2.7591,-8.237 -0.6231,0 -13.0032,7.3984 -27.5112,16.4408 -14.508,9.0425 -37.7782,23.4922 -51.7115,32.1103 -34.6072,21.4057 -63.8159,39.6852 -67.4746,42.2275 -2.9968,2.0823 -3.0069,2.1804 -0.7198,7 1.2757,2.6884 2.9059,4.888 3.6225,4.888 0.7167,0 10.0117,-5.55 20.6555,-12.3333 z m 48.0191,3.914 c 5.0769,-3.8973 16.1306,-12.4172 24.564,-18.9331 8.4333,-6.516 23.1333,-17.8236 32.6666,-25.128 24.53,-18.795 31.1807,-24.0908 31.211,-24.8529 0.015,-0.3667 -1.3731,-2.3776 -3.0837,-4.4688 l -3.1101,-3.8021 -52.099,39.1354 c -28.6544,21.5245 -52.1332,39.5663 -52.1752,40.0929 -0.1154,1.4477 6.8798,4.9286 10.0264,4.9892 1.5232,0.029 6.9232,-3.1353 12,-7.0326 z m -26.1027,-46.6528 c 20.1667,-10.971 42.3667,-22.9489 49.3333,-26.6175 6.9667,-3.6687 13.2667,-7.1035 14,-7.633 0.7334,-0.5295 7.3334,-4.1277 14.6667,-7.9962 22.2369,-11.7301 22,-11.5446 22,-17.2344 0,-5.5483 -1.014,-7.3279 -3.2107,-5.6345 -0.8008,0.6173 -8.056,4.596 -16.1226,8.8416 -8.0667,4.2455 -23.9667,12.6663 -35.3334,18.7129 -11.3666,6.0465 -35.0666,18.6324 -52.6666,27.9685 -17.6,9.3361 -34.4,18.255 -37.3334,19.8197 -6.8841,3.6723 -7.2885,4.3202 -7.3129,11.7168 l -0.02,6.2051 7.6667,-4.1009 c 4.2167,-2.2555 24.1667,-13.0772 44.3333,-24.0481 z m 354.39155,3.7658 c 8.0746,-6.7944 8.0838,-3.6864 -0.3936,-133.3603 -1.0547,-16.1334 -2.8855,-45.2334 -4.0685,-64.6667 -1.4714,-24.1721 -2.7629,-36.6332 -4.0884,-39.4483 -4.0627,-8.6284 -8.9737,-9.9587 -83.1743,-22.5302 -23.8333,-4.0379 -62.9762,-10.7592 -86.9842,-14.9361 -42.77165,-7.4415 -43.74665,-7.5487 -48.40705,-5.3263 -9.1965,4.3854 -10.1335,12.6924 -6.0432,53.5742 0.8071,8.0667 2.3617,25.1667 3.4547,38 3.7411,43.9237 4.7402,55.3475 6.0059,68.6667 0.6968,7.3333 1.8916,21.4333 2.6551,31.3333 2.0031,25.974 4.5056,32.1106 15.13175,37.1054 7.7139,3.626 14.161,5.5901 70.8537,21.5848 53.9536,15.2219 100.0109,28.5885 108,31.3434 2.9333,1.0115 9.3373,1.8678 14.231,1.9028 7.5798,0.054 9.4797,-0.4261 12.8271,-3.2427 z m -20.3915,-2.7285 c -0.7333,-0.2701 -5.6494,-1.7708 -10.9246,-3.3351 l -9.5913,-2.844 7.675,-7.5597 c 9.5042,-9.3614 13.1557,-16.8029 15.5732,-31.7373 1.0347,-6.3918 2.5646,-13.7667 3.3997,-16.3886 1.8879,-5.9271 9.0318,-18.7671 10.4416,-18.7671 0.9723,0 4.8085,56.2008 4.72,69.1496 -0.055,8.0166 -4.8316,12.2276 -13.7013,12.0784 -3.4424,-0.058 -6.8589,-0.3262 -7.5923,-0.5962 z m -176.6755,-51.3724 c -15.31195,-5.9303 -16.30325,-7.9519 -18.59595,-37.9261 -0.7853,-10.2667 -1.7477,-20.6167 -2.1386,-23 -0.391,-2.3833 -0.2109,-4.3333 0.4001,-4.3333 1.8875,0 11.82665,16.2619 14.70565,24.0606 1.5012,4.0666 3.4579,11.0965 4.3483,15.622 0.8903,4.5254 3.896,12.8967 6.6793,18.6029 2.7834,5.7063 4.9553,10.4804 4.8265,10.6092 -0.1289,0.1288 -4.7302,-1.5071 -10.2253,-3.6353 z m 83.3422,-11.2508 c -11.2716,-3.2102 -26.0325,-11.5522 -34.2096,-19.3332 -4.2847,-4.0772 -7.7904,-8.1472 -7.7904,-9.0443 0,-3.2499 18.9567,-0.8843 27.3333,3.4109 8.2127,4.2111 22.4323,6.9119 36.513,6.9351 13.9879,0.023 30.8204,2.2973 30.8204,4.1641 0,1.4688 -10.5412,9.7818 -16,12.6179 -6.176,3.2088 -27.2642,3.9274 -36.6667,1.2495 z m 74,-13.5806 c -12.8392,-2.0884 -33.7398,-6.2741 -39.2015,-7.8508 -4.159,-1.2007 -9.0889,-1.5863 -13.5602,-1.0608 -8.3377,0.9799 -22.1411,-1.3183 -33.2383,-5.5341 -5.1702,-1.9641 -13.8623,-3.5965 -24.573,-4.6149 -29.2823,-2.7842 -52.5645,-10.2518 -59.23715,-18.9999 -4.142,-5.4304 -8.8621,-18.3698 -8.8436,-24.2429 0.01,-2.2686 1.4632,-7.2393 3.2357,-11.0461 2.4844,-5.3362 4.9293,-8.0547 10.67375,-11.8688 4.0982,-2.721 7.7691,-4.6293 8.1578,-4.2407 0.3886,0.3886 0.011,3.4694 -0.8394,6.8462 -2.0929,8.3117 -0.7322,14.1968 4.4398,19.2024 9.0756,8.7838 18.3778,10.1518 37.7478,5.5515 16.3909,-3.8929 22.7631,-2.8641 30.6951,4.9556 9.6715,9.5345 16.3843,10.4498 25.5224,3.4798 3.7422,-2.8543 5.1822,-3.1831 10.4679,-2.3905 3.3708,0.5055 10.7242,3.3702 16.3408,6.3661 5.6167,2.9958 13.4467,7.1509 17.4,9.2334 8.0889,4.2611 15.5104,4.8728 21.5055,1.7727 7.1594,-3.7024 8.3758,-9.7155 4.0206,-19.8757 -1.4406,-3.3608 -2.1059,-6.1105 -1.4785,-6.1105 0.6275,0 3.9094,2.2878 7.2931,5.084 14.9475,12.3518 19.9834,25.6144 15.6361,41.1793 -3.4701,12.4242 -14.0959,17.1036 -32.1647,14.1647 z m -46.6667,-60.696 c 0,-3.4716 -1.5202,-5.7462 -8.1481,-12.1917 -7.6916,-7.4798 -11.8519,-14.1175 -11.8519,-18.9095 0,-3.6167 2.525,-0.7742 3.9312,4.4255 0.8795,3.2523 4.0851,7.6357 9.3695,12.8123 7.0668,6.9225 8.0327,8.4857 8.0327,13 0,2.8223 -0.3,5.1314 -0.6667,5.1314 -0.3667,0 -0.6667,-1.9206 -0.6667,-4.268 z m -52.3333,-5.8303 c -0.55,-0.5571 -1,-2.9408 -1,-5.2971 0,-3.6318 1.1141,-5.1254 7.3154,-9.8074 4.0234,-3.0377 7.6001,-6.8598 7.9481,-8.4935 0.348,-1.6337 0.86,-4.1704 1.1379,-5.6371 0.4182,-2.2071 0.6876,-2.0116 1.5635,1.1344 1.4571,5.2333 -1.2912,10.2635 -8.6316,15.7983 -4.441,3.3487 -6.1732,5.6663 -6.6666,8.9197 -0.3667,2.4176 -1.1167,3.9398 -1.6667,3.3827 z m 94.1596,-12.0286 c -14.0376,-6.6448 -25.7783,-6.9324 -39.5065,-0.9676 -6.2423,2.7122 -7.9277,1.4097 -3.0948,-2.3918 l 3.6321,-2.857 -4.0952,-4.2252 c -4.8779,-5.0327 -5.1105,-7.3753 -1.0952,-11.0325 4.8876,-4.4517 8.4229,-5.7324 15.8247,-5.7324 12.3307,0 25.0188,8.8844 27.0269,18.9245 0.4388,2.1943 2.6652,5.7339 4.9475,7.8659 2.2823,2.132 3.9361,3.8263 3.6752,3.7652 -0.2608,-0.061 -3.5525,-1.5683 -7.3147,-3.3491 z m 14.1869,-8.5398 c -0.04,-2.5667 -1.2504,-7.264 -2.691,-10.4384 -2.8172,-6.208 -1.1879,-7.0339 2.9146,-1.4775 3.5056,4.7479 4.3187,10.7397 1.8884,13.9159 -1.9526,2.552 -2.0434,2.4661 -2.112,-2 z m -123.1875,-8.5834 c -10.3744,-5.3479 -10.6899,-5.4166 -24.8731,-5.4166 -7.901,0 -14.0845,-0.4543 -13.7411,-1.0095 0.3434,-0.5552 2.3863,-1.9206 4.5397,-3.0342 2.3906,-1.2362 3.9155,-3.0842 3.9155,-4.7449 0,-7.2696 7.1477,-11.9 18.2905,-11.8488 8.3662,0.038 15.8755,3.5926 22.0428,10.4328 5.9291,6.5761 6.1613,8.5891 1.4898,12.9185 -2.9362,2.7211 -3.2322,3.5882 -1.81,5.3018 2.9061,3.5018 1.0115,3.002 -9.8541,-2.5991 z m 137.44,-7.6136 -6.401,-6.1422 0.8007,-7.1637 c 1.5651,-14.0035 2.0855,-15.7031 5.6707,-18.5232 3.3809,-2.6594 3.6207,-2.6802 4.5233,-0.3911 1.7325,4.3935 1.2477,11.1265 -0.8594,11.935 -1.1,0.4221 -2,1.3033 -2,1.9582 0,0.6549 0.9,1.1907 2,1.1907 1.7925,0 2.206,1.8885 1.9669,8.9822 -0.018,0.5403 -1.9682,0.8404 -4.3333,0.667 -3.8405,-0.2816 -4.0339,-0.1372 -1.8088,1.3511 6.5271,4.3655 7.7523,5.8789 7.305,9.023 -0.448,3.1489 -0.6722,3.0546 -6.8641,-2.887 z m -87.9993,-13.9002 c -3.6511,-3.6512 -5.9533,-10.7774 -4.0679,-12.592 0.6242,-0.6008 6.8349,-3.5941 13.8015,-6.6518 16.0859,-7.0601 27.4629,-8.3104 38.8905,-4.2739 12.3954,4.3784 27.7762,15.797 27.7762,20.6209 0,3.3597 -3.7362,2.1465 -13.3333,-4.3293 -8.8818,-5.9931 -16.2475,-8.569 -21.0708,-7.3689 -1.9778,0.4921 -7.1959,3.1634 -11.5959,5.9361 -11.0241,6.9472 -21.42,12.0894 -24.4405,12.0894 -1.3911,0 -4.073,-1.5437 -5.9598,-3.4305 z m -100.2492,-1.8246 c -0.9081,-4.1346 0.4438,-7.8077 3.9423,-10.7112 3.1434,-2.6088 3.8443,-0.811 1.4722,3.7762 -1.1541,2.2317 -2.0983,5.5875 -2.0983,7.4572 0,4.6505 -2.2582,4.2948 -3.3162,-0.5222 z m 63.1026,-5.6478 c -3.9159,-3.0633 -11.7772,-9.6518 -17.4697,-14.641 -16.5579,-14.5125 -19.095,-15.1494 -38.6159,-9.6936 -6.6094,1.8473 -9.3577,2.114 -10.4569,1.0148 -5.31145,-5.3113 13.0656,-13.1154 30.7561,-13.061 12.3126,0.038 17.5092,2.2559 34,14.5123 6.6,4.9053 13.3931,9.9356 15.0957,11.1784 4.2739,3.1196 4.4329,10.464 0.299,13.8114 -4.2677,3.4558 -5.5877,3.1531 -13.6083,-3.1213 z m -84.34445,-8.7661 c -0.4265,-0.4265 -0.7754,-2.1683 -0.7754,-3.8708 0,-2.5802 0.8876,-3.2373 5.3333,-3.9482 6.761,-1.0811 6.8213,-2.5999 0.1456,-3.6674 -5.1652,-0.8259 -6.8122,-2.6684 -6.8122,-7.6203 0,-1.9529 0.9457,-2.5576 4,-2.5576 5.1017,0 4.994,-1.3122 -0.3847,-4.6856 -3.7014,-2.3214 -4.3371,-3.5418 -4.6884,-9 -0.2235,-3.4729 0.076,-6.3122 0.6667,-6.3094 2.3274,0.011 9.7162,5.3863 11.8227,8.6012 3.214,4.9052 5.4963,25.7419 3.0746,28.0719 -2.4423,2.35 -11.408,5.9604 -12.3822,4.9862 z m -165.9763,197.161 c 10.5605,-5.0461 24.3009,-11.5866 30.5342,-14.5345 6.2334,-2.9478 18.8334,-8.9455 28,-13.3282 20.1512,-9.6346 45.1881,-21.5406 63.6667,-30.276 l 13.6667,-6.4606 v -5.0343 c 0,-2.7689 -0.4521,-5.3138 -1.0047,-5.6553 -0.5526,-0.3415 -6.7026,2.0861 -13.6667,5.3946 -6.9641,3.3085 -15.062,7.0723 -17.9953,8.3639 -5.276,2.3233 -82.5109,38.2689 -96.6667,44.9893 -4.0333,1.9148 -11.6177,5.4392 -16.8543,7.8319 -9.3082,4.2532 -13.8123,8.3557 -13.8123,12.5806 0,2.1113 2.4471,5.3033 4.0657,5.3033 0.4762,0 9.5062,-4.1286 20.0667,-9.1747 z m -33.8055,-4.492 c 2.4242,-3.0603 5.9395,-15.7569 5.1898,-18.7441 -0.4071,-1.622 -4.6708,-6.7285 -9.4748,-11.3477 -4.8039,-4.6191 -9.9409,-10.7632 -11.4153,-13.6533 -4.6824,-9.1783 -5.518,-6.7638 -5.056,14.6093 0.4834,22.3629 1.0031,23.6845 11.096,28.2184 6.5054,2.9222 7.9627,3.0606 9.6603,0.9174 z m 31.5447,-17.6657 c 4.3294,-1.8529 7.5524,-3.6881 7.1622,-4.0782 -1.0265,-1.0265 -13.1722,2.0823 -16.7005,4.2746 -3.6593,2.2738 -4.2946,6.5612 -0.6667,4.4988 1.2834,-0.7296 5.8756,-2.8424 10.205,-4.6952 z m 78.3734,-35.1678 c 63.2023,-28.5198 58.4216,-25.9557 58.4216,-31.335 0,-2.5707 -0.45,-4.9462 -1,-5.2788 -0.8028,-0.4855 -28.0028,10.7635 -39.6666,16.4049 -1.4667,0.7094 -10.4667,4.6482 -20,8.753 -27.2465,11.7317 -28.398,12.4136 -30.1307,17.8439 -0.8386,2.6284 -2.0523,5.3489 -2.6971,6.0455 -1.2261,1.3249 -1.5885,3.4 -0.5938,3.4 0.3181,0 16.3681,-7.125 35.6666,-15.8335 z m -45.8335,9.3881 c 6.1778,-5.3579 6.3406,-14.2978 0.319,-17.5204 -3.7945,-2.0308 -3.4637,-3.304 2.2695,-8.7336 l 5,-4.7354 -3,-2.1119 c -3.9509,-2.7812 -3.824,-3.5336 1.6109,-9.5493 6.8218,-7.5509 7.6505,-10.6989 4.6064,-17.498 -3.071,-6.8593 -3.2203,-10.6964 -0.5507,-14.1511 1.8993,-2.4579 2.0919,-2.47 3.8241,-0.2406 1.7113,2.2024 2.2457,2.0787 8.6371,-2 3.7472,-2.3912 6.8263,-5.1215 6.8426,-6.0674 0.06,-3.4648 -5.2568,-11.9261 -11.9454,-19.0115 -6.7779,-7.1801 -6.889,-7.2354 -9.11,-4.5348 -1.2366,1.5037 -4.4776,5.3375 -7.2023,8.5195 l -4.9539,5.7856 -5.9408,-1.6633 c -3.2674,-0.9148 -6.6656,-1.2153 -7.5516,-0.6677 -2.6846,1.6592 -13.2664,25.3151 -13.2664,29.6574 0,2.83 1.8205,6.2917 6.0203,11.4474 3.3112,4.0648 6.3419,9.0698 6.7348,11.1222 0.4283,2.237 -0.6479,7.6969 -2.687,13.6319 -3.704,10.7808 -4.4369,22.1741 -1.6697,25.9585 3.392,4.6388 17.627,6.1666 22.0131,2.3625 z m -241.0782,-11.5788 c 15.7667,-3.3757 30.6167,-6.4797 33,-6.8978 4.8195,-0.8455 5.572,-3.3828 2.3624,-7.9653 -1.8985,-2.7103 -2.3035,-2.7485 -11,-1.0379 -8.18,1.6089 -60.7842,12.902 -68.0291,14.6044 -2.3658,0.556 -3,1.6391 -3,5.124 0,2.4305 0.3221,4.7411 0.7158,5.1348 0.3937,0.3937 4.4437,-0.081 9,-1.0544 4.5563,-0.9736 21.1842,-4.5322 36.9509,-7.9078 z m 271.6039,-15.8997 c 8.6512,-3.2581 25.9294,-9.8904 38.3961,-14.7383 12.4667,-4.848 25.2167,-9.7386 28.3333,-10.8681 5.1556,-1.8684 5.6667,-2.4633 5.6667,-6.595 0,-2.4977 -0.5514,-4.5413 -1.2254,-4.5413 -0.6739,0 -11.0239,3.5479 -23,7.8843 -11.976,4.3364 -30.6119,11.0675 -41.4131,14.958 -19.2575,6.9365 -19.6778,7.172 -21.6666,12.1427 -2.0524,5.1292 -2.5256,7.6816 -1.4243,7.6816 0.3321,0 7.6821,-2.6657 16.3333,-5.9239 z m -96.4202,-1.9107 c 1.245,-1.3757 2.6066,-4.6147 3.0257,-7.1977 0.6752,-4.1604 0.1166,-5.3969 -4.8934,-10.8321 -3.1106,-3.3746 -6.1792,-6.1356 -6.8191,-6.1356 -1.6168,0 -1.4668,7.6553 0.1698,8.6667 1.6023,0.9903 1.7749,3.3333 0.2455,3.3333 -5.1805,0 -10.6835,-28.2865 -6.8842,-35.3856 2.4255,-4.5322 0.3564,-5.9783 -2.7582,-1.9278 -4.2045,5.4679 -5.6361,11.7497 -4.975,21.8293 0.647,9.8631 5.0175,20.9003 10.7514,27.1508 3.3565,3.659 9.0652,3.8936 12.1375,0.4987 z m -152.7421,-20.8292 c 1.0309,-1.0309 -1.0771,-7.002 -3.4247,-9.7007 l -2.3502,-2.7018 -23.7094,3.7532 c -13.0401,2.0643 -27.8901,4.4584 -33,5.3203 l -9.2906,1.5671 v 6.324 c 0,3.4782 0.3032,6.6272 0.6739,6.9979 0.6973,0.6973 70.1328,-10.5918 71.101,-11.56 z m 274.8917,-6.7872 c 46.1361,-14.546 44.6667,-13.9337 44.6667,-18.6122 0,-5.0056 -0.6442,-4.9334 -26,2.9147 -10.6333,3.2912 -25.3333,7.7915 -32.6667,10.0006 -18.5515,5.5886 -20.6641,6.5053 -20.6848,8.9764 -0.01,1.1943 -0.4065,3.6227 -0.881,5.3964 -0.7432,2.778 -0.5097,3.0848 1.6848,2.2139 1.4013,-0.556 16.6477,-5.4564 33.881,-10.8898 z m 4,-19.1784 c 10.6334,-2.2538 23.9834,-5.0697 29.6667,-6.2573 l 10.3333,-2.1595 v -5.1435 c 0,-3.2306 -0.6198,-5.1404 -1.6666,-5.1351 -0.9167,0 -12.7667,2.4315 -26.3334,5.3928 -13.5666,2.9613 -26.3166,5.7324 -28.3333,6.1581 -2.0167,0.4257 -3.6667,1.5529 -3.6667,2.505 0,0.952 -1.64,3.68 -3.6444,6.0622 l -3.6445,4.3312 3.9778,-0.828 c 2.1878,-0.4553 12.6778,-2.672 23.3111,-4.9259 z m -318.3333,-5.5999 c 28.8084,-3.226 27.9226,-2.8138 24.8696,-11.5717 -0.8493,-2.4363 -2.3885,-4.1936 -3.6667,-4.1862 -1.2116,0.01 -13.8654,1.207 -28.1195,2.6667 -14.2542,1.4596 -26.4042,2.6539 -27,2.6539 -1.2952,0 -1.4697,11.1692 -0.1945,12.4444 1.4071,1.4072 6.0733,1.1326 34.1111,-2.0071 z m 322.1653,-15.9437 c 13.6591,-2.2952 26.9347,-4.5522 29.5014,-5.0155 4.2803,-0.7727 4.7017,-1.2687 5.0903,-5.9919 l 0.4236,-5.1494 -7.3304,0.9159 c -14.7059,1.8374 -60.857,9.6429 -61.6391,10.425 -1.4912,1.4913 3.9929,8.9889 6.575,8.9889 1.3994,0 13.72,-1.8778 27.3792,-4.173 z m 27.5014,-22.7645 c 4.377,-0.4212 5.4133,-1.0682 5.7795,-3.6083 0.2454,-1.7023 -0.055,-3.5917 -0.6666,-4.1986 -1.0159,-1.0073 -14.5493,0.01 -56.1921,4.2213 -13.5202,1.3675 -15.2929,1.8514 -17.1466,4.6805 -4.4141,6.7368 -3.0249,6.8716 31.076,3.0158 17.499,-1.9786 34.2164,-3.8284 37.1498,-4.1107 z m -84.6667,1.9917 c 11.973,-4.1622 12.2522,-5.2656 7.8995,-31.2204 -2.8952,-17.2642 -8.8607,-37.2701 -11.3611,-38.1005 -2.2123,-0.7348 -16.1729,11.2928 -17.0114,14.6559 -3.6307,14.5617 -4.0152,46.9882 -0.6327,53.3527 2.6752,5.0338 9.2283,5.4412 21.1057,1.3123 z m -253.3333,-2.0047 7.3333,-0.3828 v -6.5706 -6.5705 l -15.3333,0.3837 c -8.4334,0.2111 -21.0334,0.7678 -28,1.2372 l -12.6667,0.8535 0.1405,4.8692 c 0.273,9.4621 -3.9771,8.9208 48.5262,6.1803 z m 195.0574,-12.7446 c 4.6438,-10.0018 9.6922,-29.7615 8.4385,-33.0287 -0.3661,-0.954 -2.0522,-1.3393 -4.1258,-0.9429 -3.4964,0.6684 -3.5041,0.6508 -2.6226,-5.9939 1.0487,-7.906 -0.1847,-9.1674 -6.4178,-6.5631 -5.3779,2.247 -11.174,8.8406 -14.652,16.6679 -3.1171,7.015 -2.2585,8.3129 2.9513,4.4611 4.8032,-3.5511 7.3706,-3.7962 5.9917,-0.5719 -1.7123,4.0038 -2.3139,9.6666 -1.0269,9.6666 0.6764,0 2.3945,-0.8809 3.818,-1.9576 1.4235,-1.0766 3.0382,-1.9766 3.5882,-2 2.0414,-0.087 0.858,10.2859 -2.3532,20.6243 -1.8222,5.8667 -3.3132,11.5097 -3.3133,12.54 -4e-4,3.9312 4.9708,-2.6646 9.7239,-12.9018 z m 134.2759,-5.4592 12.6667,-0.8457 v -4.6666 -4.6667 l -15.3334,0.1251 c -8.4333,0.069 -24.7833,0.582 -36.3333,1.1404 l -21,1.0153 v 4.304 c 0,2.3673 0.45,4.7699 1,5.3393 0.9513,0.9849 31.7599,0.074 59,-1.7451 z m 12,-18.6358 v -5.1235 l -23,-0.8724 c -12.65,-0.4799 -29.45,-0.8743 -37.3333,-0.8766 h -14.3334 l 0.02,3.6666 c 0.042,7.5042 -1.009,7.3446 52.9796,8.0502 l 21.6667,0.2792 z m -329.3226,-6.2481 c 0.9298,-3.321 1.4121,-6.3168 1.0717,-6.6572 -1.2327,-1.2326 -63.3409,-2.3761 -64.0015,-1.1782 -0.3661,0.6638 -0.3986,3.7299 -0.072,6.8135 l 0.5933,5.6065 8.1991,0.4699 c 4.5094,0.2585 18.171,0.5855 30.359,0.7268 l 22.1601,0.2569 z m 327.9893,-11.1892 c 0,-4.6357 -0.415,-5.3104 -3.6667,-5.9614 -6.9364,-1.3886 -71.1627,-6.3674 -73.0074,-5.6595 -1.4096,0.5409 -1.5581,1.7144 -0.6274,4.9595 0.6706,2.3381 1.5383,4.5701 1.9282,4.96 0.39,0.39 17.3585,2.035 37.7078,3.6556 20.3494,1.6206 37.1488,3.0201 37.3321,3.1099 0.1834,0.09 0.3334,-2.189 0.3334,-5.0641 z m -108,-14.8602 c 0,-0.7816 -0.676,-2.6841 -1.5022,-4.2278 -1.2052,-2.2521 -1.0735,-3.1202 0.6667,-4.3927 3.394,-2.4818 2.6745,-3.9107 -4.9185,-9.7687 -8.5983,-6.6336 -17.3227,-9.9621 -23.246,-8.8688 -6.0671,1.1198 -5.3946,3.04 1.6893,4.8238 6.8894,1.7347 8.8591,3.6999 4.7782,4.7671 -3.3592,0.8784 -3.5986,2.5091 -0.6137,4.1796 1.3339,0.7464 1.7788,1.8848 1.1404,2.9178 -0.775,1.2539 -4.026,1.5026 -12.5205,0.9578 -11.9934,-0.7692 -19.3578,0.7265 -23.3794,4.7481 -1.1519,1.1519 -2.0943,2.3707 -2.0943,2.7086 0,0.3379 4.95,0.346 11,0.018 7.0055,-0.3799 14.1471,0.1194 19.6666,1.3749 10.3376,2.3514 29.3334,2.8452 29.3334,0.7624 z m 107.3695,-2.243 c -0.5058,-2.0151 -1.0348,-3.779 -1.1755,-3.9198 -0.7199,-0.7198 -58.4104,-9.4826 -65.9175,-10.0124 -5.0015,-0.3529 -6.0034,0.052 -7.9428,3.2089 -1.2206,1.9871 -1.9106,3.9215 -1.5332,4.2989 0.3773,0.3773 12.6516,2.2648 27.2761,4.1944 14.6245,1.9296 29.59,3.9702 33.2567,4.5348 3.6667,0.5646 8.9817,1.1013 11.8112,1.1928 4.9705,0.1607 5.1134,0.042 4.225,-3.4976 z m -310.2186,-8.0027 c 2.6347,-4.0372 3.5378,-6.4441 2.4911,-6.6388 -0.9031,-0.168 -16.342,-1.5364 -34.3087,-3.041 -17.9667,-1.5045 -36.7167,-3.1032 -41.6667,-3.5527 l -9,-0.8171 v 6.7977 c 0,6.6266 0.1091,6.8166 4.3334,7.547 3.386,0.5854 57.0894,5.0113 71.1755,5.8658 2.0161,0.1223 4.0435,-1.6683 6.9754,-6.1609 z m 308.3989,-9.1259 c -0.2477,-2.8641 -0.9094,-5.6892 -1.4707,-6.2781 -1.2361,-1.2969 -71.9887,-16.1309 -72.8466,-15.273 -0.927,0.9271 6.2252,13.1418 8.1211,13.8693 2.9877,1.1465 63.9399,13.4184 65.313,13.1499 0.7334,-0.1434 1.1308,-2.6041 0.8832,-5.4681 z m -79.2525,0.404 c 1.6436,-3.6072 -0.4092,-8.1999 -7.5491,-16.8896 -4.5486,-5.5359 -11.6201,-10.2944 -13.0996,-8.8149 -0.4237,0.4236 0.6606,2.2933 2.4094,4.1548 2.7479,2.925 2.9494,3.7531 1.4842,6.0992 -1.9606,3.1395 -1.4919,3.9922 7.0241,12.7785 6.2695,6.4684 7.8087,6.8911 9.731,2.672 z m 405.45635,-15.764 c 30.6168,-13.055 32.4398,-14.223 26.8605,-17.2089 -8.5984,-4.6017 -112.5717,-27.1282 -153.2808,-33.2093 -26.9874,-4.0313 -62.5016,-7.879 -82.146,-8.8999 -14.346,-0.7455 -19.1779,-0.4921 -26.9541,1.4135 -13.1148,3.214 -43.25985,14.3904 -43.87015,16.2651 -0.7733,2.3753 25.43425,7.0548 84.97025,15.1718 55.4127,7.5549 140.2104,22.5378 151.0329,26.6861 3.8319,1.4688 8.7671,4.1519 10.9671,5.9624 2.2,1.8105 5.3892,3.2948 7.087,3.2985 1.6979,0 13.0979,-4.262 25.3333,-9.4793 z m -328.66275,-10.5656 c -0.9314,-0.8823 -45.5716,-13.4144 -95.0909,-26.6954 -7.7,-2.0651 -29.6,-8.044 -48.6667,-13.2863 -101.4452,-27.8923 -96.1797,-26.6263 -110.6667,-26.6088 -7.3333,0.01 -14.1268,0.5193 -15.0966,1.1342 -1.1423,0.7242 4.4929,2.8815 16,6.1252 63.5213,17.9061 69.8243,19.4407 85.0966,20.7189 23.4745,1.9648 24.8845,2.3211 42,10.6146 16.3654,7.9299 25.2928,10.6971 98,30.376 l 28.6667,7.759 0.4243,-4.552 c 0.2334,-2.5036 -0.067,-5.017 -0.6667,-5.5854 z m -277.6794,3.8283 c 2.8903,-2.3227 5.2551,-4.6391 5.2551,-5.1476 0,-0.5084 -2.85,-1.2779 -6.3333,-1.71 -3.4833,-0.432 -29.1185,-4.1156 -56.967,-8.1857 -27.8485,-4.0701 -51.7314,-7.4002 -53.0731,-7.4002 -2.0763,0 -2.3789,0.9362 -2.033,6.2898 0.5021,7.7705 -3.5018,6.6798 52.4064,14.2757 53.7257,7.2994 53.9886,7.3076 60.7449,1.878 z m 691.35175,-3.0508 3.5814,-2.3466 -0.9596,-18.1897 c -0.5278,-10.0043 -1.5399,-18.8928 -2.2491,-19.7521 -0.7092,-0.8594 -3.8049,-1.9778 -6.8793,-2.4855 -8.8145,-1.4555 -42.7599,-8.161 -59.5899,-11.7713 -38.9478,-8.3548 -81.0505,-9.2101 -135.2936,-2.7487 -8.7781,1.0457 -16.8481,1.9012 -17.9333,1.9012 -1.2791,0 -1.5168,0.4564 -0.6756,1.2976 0.7137,0.7136 8.1837,2.2572 16.6,3.4302 34.2872,4.7787 112.8318,21.88 147.1385,32.0361 18.8393,5.5772 23.1782,7.6867 32.7738,15.9345 6.868,5.9033 7.631,6.2204 13.5909,5.6477 3.4729,-0.3337 7.926,-1.6627 9.8958,-2.9534 z m -410.61715,-14.8701 c 1.1055,-2.6459 1.8249,-4.9838 1.5986,-5.1953 -0.2263,-0.2115 -11.8114,-4.3898 -25.7447,-9.2852 -13.9334,-4.8955 -36.4334,-12.8072 -50,-17.5818 -13.5667,-4.7745 -36.5831,-12.83 -51.1475,-17.901 l -26.4808,-9.22 -13.248,0.8682 c -7.4613,0.489 -12.7439,1.3724 -12.0939,2.0224 0.9612,0.9612 43.8682,16.1646 70.9702,25.1473 9.481,3.1423 78.7815,27.0372 92.6666,31.9516 5.8667,2.0763 10.8473,3.8268 11.0681,3.8899 0.2207,0.063 1.3059,-2.0502 2.4114,-4.6961 z m -237.36,-7.9492 c 5.007,-1.8846 9.7009,-3.7957 10.4309,-4.2468 1.4279,-0.8826 -9.9224,-3.4989 -55.8837,-12.8818 -16.1333,-3.2936 -44.0333,-9.0369 -62,-12.763 -24.9763,-5.1797 -34.8639,-6.6852 -42,-6.3949 l -9.3333,0.3798 -0.4179,4.3342 c -0.3409,3.5352 0.166,4.5562 2.7494,5.5384 1.7421,0.6623 27.4301,6.1371 57.0846,12.1661 29.6545,6.0291 60.5172,12.3327 68.5839,14.008 18.9261,3.9306 19.9845,3.9258 30.7861,-0.14 z"
       id="path1"
       clip-path="url(#clipPath4)"
       transform="matrix(2.6479411,0.17844082,-0.16703054,2.6160267,-1926.3743,-3290.878)" />
  </g>
</svg>
